# xmcd CD database file
#
# Track frame offsets:
#	150
#	8988
#	22222
#	38178
#	66636
#	80148
#	89932
#	104118
#	109315
#	121528
#	146057
#	163584
#	181277
#	211057
#	216796
#	237691
#	254004
#	272604
#	290448
#	311409
#	316297
#
# Disc length: 4475 seconds
#
# Revision: 0
# Processed by: cddbd v1.5.2PL0 Copyright (c) Steve Scherf et al.
# Submitted via: CDex 1.70beta2
#
DISCID=4c117915
DTITLE=Stan Kenton - Live from Canada
DYEAR=1952
DGENRE=Jazz
TTITLE0=Intro/theme
TTITLE1=Stardust
TTITLE2=Love for Sale
TTITLE3=Ennui
TTITLE4=Bill's blues
TTITLE5=Artistry in Rhythm
TTITLE6=Collaboration
TTITLE7=Intro/theme
TTITLE8=Francesca
TTITLE9=Stella by Starlight
TTITLE10=Artistry in Bolero
TTITLE11=Sommnanbolism
TTITLE12=Jump for Joe
TTITLE13=Intro/theme
TTITLE14=Minor Riff
TTITLE15=Interlude
TTITLE16=Bags and Baggage
TTITLE17=Street of Dreams
TTITLE18=Portrait of a Count
TTITLE19=Canadian Tribute
TTITLE20=Concerto to End All Concertos
EXTD=YEAR: 1952
EXTT0=
EXTT1=
EXTT2=
EXTT3=
EXTT4=
EXTT5=
EXTT6=
EXTT7=
EXTT8=
EXTT9=
EXTT10=
EXTT11=
EXTT12=
EXTT13=
EXTT14=
EXTT15=
EXTT16=
EXTT17=
EXTT18=
EXTT19=
EXTT20=
PLAYORDER=
